<svg width="56" height="29" viewBox="0 0 56 29" fill="none" xmlns="http://www.w3.org/2000/svg">
<rect x="0.193726" y="3.91382" width="54" height="25" rx="3" transform="rotate(-4 0.193726 3.91382)" fill="#6E30BE"/>
<path d="M8.63845 21.3673L7.82674 9.75925L12.4745 9.43424C13.3285 9.37453 14.0496 9.45131 14.6379 9.66458C15.2261 9.87785 15.6796 10.1993 15.9982 10.6289C16.3166 11.0546 16.4961 11.5585 16.5368 12.1404C16.5685 12.5939 16.5057 12.9988 16.3484 13.3554C16.1908 13.7081 15.9609 14.0052 15.6588 14.2466C15.3603 14.4839 15.012 14.662 14.614 14.781L14.622 14.8943C15.0654 14.8823 15.4879 14.9781 15.8894 15.1816C16.2947 15.3849 16.6328 15.6859 16.9037 16.0847C17.1744 16.4796 17.3296 16.9624 17.3695 17.533C17.4126 18.1489 17.298 18.7094 17.0258 19.2145C16.757 19.7155 16.3358 20.1265 15.7621 20.4476C15.1884 20.7688 14.467 20.9597 13.5979 21.0205L8.63845 21.3673ZM10.9524 19.1892L12.9532 19.0493C13.6371 19.0014 14.1268 18.8362 14.4222 18.5535C14.7173 18.2671 14.8495 17.9047 14.8189 17.4664C14.7964 17.1452 14.6992 16.8672 14.5271 16.6325C14.355 16.3977 14.1204 16.2204 13.8235 16.1007C13.5303 15.9807 13.1872 15.9345 12.7942 15.9619L10.7368 16.1058L10.9524 19.1892ZM10.6206 14.4451L12.4401 14.3179C12.7764 14.2943 13.0708 14.2149 13.3233 14.0795C13.5794 13.9401 13.7753 13.7555 13.9111 13.5258C14.0507 13.2958 14.1098 13.0278 14.0884 12.7217C14.0591 12.3023 13.8862 11.9745 13.5697 11.7385C13.257 11.5021 12.8286 11.403 12.2845 11.441L10.4197 11.5714L10.6206 14.4451ZM19.1908 20.6294L18.3791 9.02135L26.2009 8.4744L26.3424 10.4979L20.9748 10.8732L21.1682 13.6392L26.1334 13.292L26.2749 15.3154L21.3097 15.6626L21.5035 18.4343L26.8938 18.0574L27.0353 20.0808L19.1908 20.6294ZM27.8515 10.3923L27.71 8.36887L37.2435 7.70222L37.385 9.72569L33.8312 9.9742L34.5014 19.5587L32.0755 19.7284L31.4053 10.1438L27.8515 10.3923ZM40.2077 19.1597L37.5777 19.3436L40.7733 7.4554L43.936 7.23424L48.7493 18.5624L46.1194 18.7463L42.5855 9.99426L42.4948 10.0006L40.2077 19.1597ZM39.7242 14.6085L45.9363 14.1741L46.0703 16.0899L39.8582 16.5243L39.7242 14.6085Z" fill="white"/>
</svg>
