<svg width="1539" height="1698" viewBox="0 0 1539 1698" fill="none" xmlns="http://www.w3.org/2000/svg">
<path d="M171.386 237.566L1347.74 219.21L1367.11 1460.56L190.757 1478.91L171.386 237.566Z" fill="#6E30BE"/>
<path d="M333.927 294.204L845.5 525.627L787.5 538.967L545.5 823.168L333.927 294.204Z" fill="#DCCAF2"/>
<path d="M783 529.686L1240 1341.11L542 813.307L783 529.686Z" fill="#BDA1D3"/>
<path d="M543.5 816.206L483.5 1041.25L333.573 295.946L543.5 816.206Z" fill="#7D6E83"/>
<path d="M1238 1339.37L483 1041.25L542.001 813.307L1238 1339.37Z" fill="#382D41"/>
<path d="M1238.07 1339.95L997.499 471.685L333.499 294.784L784.499 533.745L1238.07 1339.95Z" fill="white"/>
<path d="M1238.07 1339.95L997.5 471.685L893.5 496.625L784.5 533.745L1238.07 1339.95Z" fill="#DACAEF"/>
</svg>
