<svg width="1298" height="1413" viewBox="0 0 1298 1413" fill="none" xmlns="http://www.w3.org/2000/svg">
<path d="M215.573 190.873L280.073 190.873L506 1156.87L166.5 1232L215.573 190.873Z" fill="#6E30BE"/>
<path d="M162 1246L322.5 805.871L1213.55 1114.87L1213.55 1191.31L162 1246Z" fill="#6E30BE"/>
<path d="M218.073 190.873L1298 128.5L1215.57 1198.37L949 364.372L218.073 190.873Z" fill="#6E30BE"/>
<path d="M283.927 206.37L795.5 405.872L737.5 417.372L495.5 662.372L283.927 206.37Z" fill="#DCCAF2"/>
<path d="M733 409.372L1190 1108.87L492 653.872L733 409.372Z" fill="#BDA1D3"/>
<path d="M493.5 656.372L433.5 850.372L283.573 207.873L493.5 656.372Z" fill="#7D6E83"/>
<path d="M1188 1107.37L433 850.372L492.001 653.872L1188 1107.37Z" fill="#382D41"/>
<path d="M1188.07 1107.87L947.5 359.371L283.5 206.871L734.5 412.871L1188.07 1107.87Z" fill="white"/>
<path d="M1188.07 1107.87L947.5 359.371L843.5 380.871L734.5 412.871L1188.07 1107.87Z" fill="#DACAEF"/>
</svg>
