<?xml version="1.0" standalone="no"?>
<!DOCTYPE svg PUBLIC "-//W3C//DTD SVG 20010904//EN"
 "http://www.w3.org/TR/2001/REC-SVG-20010904/DTD/svg10.dtd">
<svg version="1.0" xmlns="http://www.w3.org/2000/svg"
 width="1080.000000pt" height="1080.000000pt" viewBox="0 0 1080.000000 1080.000000"
 preserveAspectRatio="xMidYMid meet">

<g transform="translate(0.000000,1080.000000) scale(0.100000,-0.100000)"
fill="#000000" stroke="none">
<path d="M0 5400 l0 -5400 5400 0 5400 0 0 5400 0 5400 -5400 0 -5400 0 0
-5400z m3617 4454 c62 -47 63 -55 63 -444 l0 -350 -170 0 -170 0 0 350 c0 328
1 353 19 389 19 37 56 69 96 83 41 15 125 0 162 -28z m1887 1 c65 -50 66 -54
66 -444 l0 -351 -170 0 -170 0 0 351 c0 388 1 394 64 442 41 32 60 37 123 32
37 -2 62 -11 87 -30z m1886 3 c18 -13 41 -40 51 -60 18 -34 19 -63 19 -388 l0
-350 -170 0 -170 0 0 350 c0 272 3 358 14 383 13 33 67 80 101 90 42 12 123
-1 155 -25z m-4050 -1151 c0 -325 1 -334 23 -377 52 -105 177 -129 268 -53 57
49 59 60 59 428 l0 335 770 0 770 0 0 -334 c0 -213 4 -345 11 -363 22 -59 100
-113 164 -113 46 0 109 34 141 76 l29 37 3 349 3 348 769 0 770 0 0 -335 c0
-368 2 -379 59 -428 91 -76 216 -52 269 53 21 43 22 52 22 377 l0 333 845 0
845 0 0 -3760 0 -3760 -3760 0 -3760 0 0 3760 0 3760 850 0 850 0 0 -333z"/>
<path d="M4835 7341 c-590 -94 -1028 -450 -1145 -934 -56 -227 -27 -524 68
-712 98 -195 309 -386 565 -511 l77 -38 0 -809 0 -808 -46 33 c-122 87 -285
329 -309 461 l-7 37 -249 0 -250 0 7 -52 c55 -446 317 -802 728 -988 53 -24
96 -46 96 -49 0 -3 -33 -96 -74 -206 -41 -110 -72 -203 -69 -208 2 -4 618 -7
1369 -7 l1364 0 0 240 0 240 -492 0 -493 1 70 37 c183 98 338 234 445 392 47
69 121 221 141 288 l12 42 170 -2 169 -3 194 -545 c106 -300 205 -578 220
-617 l26 -73 275 0 c257 0 275 1 271 18 -10 36 -1274 3472 -1487 4042 -106
283 -120 315 -142 318 -13 2 -48 27 -78 54 -151 138 -380 260 -596 317 -183
48 -215 52 -465 56 -206 4 -264 1 -365 -14z m538 -466 c151 -23 377 -105 377
-138 0 -11 -488 -1348 -494 -1354 -2 -3 -237 60 -293 78 l-33 11 0 703 c0 553
3 704 13 708 28 12 338 6 430 -8z m-975 -921 l-3 -236 -65 63 c-78 77 -123
158 -144 261 -44 215 15 413 173 581 l36 38 3 -236 c1 -129 1 -341 0 -471z
m1716 267 c6 -9 696 -1950 696 -1957 0 -2 -28 -4 -63 -4 l-63 0 -13 75 c-30
181 -100 320 -242 485 -116 135 -366 296 -600 386 -52 20 -95 37 -97 39 -2 2
299 860 337 958 10 26 34 36 45 18z m-1007 -1281 c206 -20 356 -61 528 -145
120 -59 181 -101 325 -224 105 -90 161 -165 185 -244 8 -29 24 -83 35 -120 67
-231 11 -458 -158 -638 -42 -45 -109 -104 -149 -130 -229 -149 -570 -210 -873
-155 l-65 12 -3 832 -2 832 37 -5 c21 -3 84 -10 140 -15z"/>
<path d="M2095 2194 c-70 -38 -124 -115 -125 -176 l0 -28 221 0 222 0 -5 45
c-7 55 -40 106 -93 142 -33 23 -53 28 -115 30 -55 2 -83 -1 -105 -13z"/>
<path d="M8520 2199 c-69 -28 -121 -93 -135 -172 l-7 -37 226 0 c252 0 237 -5
215 71 -15 50 -62 105 -110 129 -42 22 -144 27 -189 9z"/>
<path d="M1970 1933 c0 -67 55 -150 122 -184 62 -32 158 -28 217 8 25 16 56
44 68 62 26 38 47 106 38 121 -4 6 -94 10 -226 10 -202 0 -219 -1 -219 -17z"/>
<path d="M8390 1920 c0 -67 59 -148 129 -177 39 -17 134 -19 173 -4 67 25 137
119 138 184 l0 27 -220 0 -220 0 0 -30z"/>
</g>
</svg>
