<svg width="27" height="26" viewBox="0 0 27 26" fill="none" xmlns="http://www.w3.org/2000/svg">
<path d="M13.5 0.5C11.7928 0.5 10.1023 0.836255 8.52512 1.48957C6.94788 2.14288 5.51477 3.10045 4.30761 4.30761C1.86964 6.74558 0.5 10.0522 0.5 13.5C0.5 19.246 4.231 24.121 9.392 25.85C10.042 25.954 10.25 25.551 10.25 25.2V23.003C6.649 23.783 5.882 21.261 5.882 21.261C5.284 19.753 4.439 19.35 4.439 19.35C3.256 18.544 4.53 18.57 4.53 18.57C5.83 18.661 6.519 19.909 6.519 19.909C7.65 21.885 9.561 21.3 10.302 20.988C10.419 20.143 10.757 19.571 11.121 19.246C8.235 18.921 5.206 17.803 5.206 12.85C5.206 11.407 5.7 10.25 6.545 9.327C6.415 9.002 5.96 7.65 6.675 5.895C6.675 5.895 7.767 5.544 10.25 7.221C11.277 6.935 12.395 6.792 13.5 6.792C14.605 6.792 15.723 6.935 16.75 7.221C19.233 5.544 20.325 5.895 20.325 5.895C21.04 7.65 20.585 9.002 20.455 9.327C21.3 10.25 21.794 11.407 21.794 12.85C21.794 17.816 18.752 18.908 15.853 19.233C16.321 19.636 16.75 20.429 16.75 21.638V25.2C16.75 25.551 16.958 25.967 17.621 25.85C22.782 24.108 26.5 19.246 26.5 13.5C26.5 11.7928 26.1637 10.1023 25.5104 8.52512C24.8571 6.94788 23.8995 5.51477 22.6924 4.30761C21.4852 3.10045 20.0521 2.14288 18.4749 1.48957C16.8977 0.836255 15.2072 0.5 13.5 0.5Z" fill="black"/>
</svg>
