<svg width="25" height="25" viewBox="0 0 25 25" fill="none" xmlns="http://www.w3.org/2000/svg">
<g clip-path="url(#clip0_615_27)">
<path d="M6.33946 24.9115C5.37248 24.9007 4.41459 24.7234 3.50784 24.3873C2.8457 24.1425 2.24662 23.7529 1.75441 23.2468C1.247 22.7556 0.856785 22.1564 0.612745 21.4936C0.2769 20.5869 0.0997996 19.6291 0.0892157 18.6623C0.014951 17.0549 0 16.5728 0 12.5C0 8.42721 0.0164216 7.94681 0.0884804 6.33824C0.100349 5.37176 0.277667 4.41445 0.612745 3.50784C0.857973 2.84559 1.24764 2.24627 1.75343 1.75343C2.24503 1.24648 2.84439 0.856623 3.50711 0.612745C4.41385 0.276622 5.37174 0.0992717 6.33872 0.0884804C7.94657 0.014951 8.42941 0 12.5 0C16.5706 0 17.0532 0.0164216 18.6618 0.0884804C19.6285 0.100265 20.586 0.277585 21.4929 0.612745C22.1553 0.856945 22.7545 1.24666 23.2463 1.75319C23.753 2.24516 24.1429 2.84451 24.3873 3.50711C24.7235 4.41384 24.9009 5.37173 24.9118 6.33872C24.9853 7.9473 25.0002 8.42892 25.0002 12.5005C25.0002 16.5721 24.9853 17.0537 24.9118 18.6623C24.9001 19.6291 24.7227 20.5868 24.3873 21.4936C24.1335 22.1513 23.7449 22.7485 23.2464 23.2469C22.7479 23.7452 22.1506 24.1337 21.4929 24.3873C20.5862 24.7235 19.6283 24.9009 18.6613 24.9118C17.0542 24.9853 16.5711 25.0002 12.4995 25.0002C8.42794 25.0002 7.94632 24.986 6.33922 24.9118" fill="url(#paint0_radial_615_27)"/>
<path d="M5.54697 24.9224C4.70087 24.9129 3.86273 24.7577 3.06933 24.4636C2.48996 24.2495 1.96577 23.9085 1.5351 23.4658C1.09112 23.0359 0.74968 22.5116 0.536147 21.9317C0.242285 21.1384 0.0873238 20.3003 0.078063 19.4543C0.013082 18.0479 0 17.6261 0 14.0624C0 10.4987 0.0143687 10.0784 0.0774196 8.6709C0.0878042 7.82524 0.242956 6.98761 0.536147 6.19433C0.750719 5.61486 1.09167 5.09047 1.53424 4.65924C1.96438 4.21566 2.48882 3.87454 3.06869 3.66115C3.86209 3.36704 4.70023 3.21186 5.54633 3.20242C6.95318 3.13808 7.37566 3.125 10.9374 3.125C14.4991 3.125 14.9214 3.13937 16.3289 3.20242C17.1748 3.21273 18.0126 3.36788 18.8061 3.66115C19.3857 3.87482 19.91 4.21582 20.3403 4.65902C20.7837 5.08949 21.1248 5.61392 21.3386 6.19369C21.6328 6.98707 21.7881 7.82522 21.7976 8.67133C21.8619 10.0788 21.875 10.5002 21.875 14.0628C21.875 17.6254 21.8619 18.0468 21.7976 19.4543C21.7874 20.3003 21.6321 21.1382 21.3386 21.9317C21.1166 22.5072 20.7766 23.0297 20.3404 23.4658C19.9042 23.9019 19.3816 24.2418 18.8061 24.4636C18.0127 24.7578 17.1746 24.9131 16.3285 24.9226C14.9223 24.9869 14.4996 25 10.937 25C7.37438 25 6.95297 24.9876 5.54676 24.9226" fill="url(#paint1_radial_615_27)"/>
<path d="M9.43068 12.5532C9.43073 11.9409 9.61235 11.3424 9.95258 10.8333C10.2928 10.3242 10.7763 9.92746 11.3421 9.69319C11.9078 9.45893 12.5303 9.39769 13.1308 9.51721C13.7313 9.63673 14.2829 9.93164 14.7159 10.3647C15.1488 10.7977 15.4436 11.3494 15.5629 11.9499C15.6823 12.5505 15.6209 13.1729 15.3865 13.7386C15.1521 14.3043 14.7552 14.7877 14.2461 15.1278C13.7369 15.4679 13.1383 15.6494 12.526 15.6493C11.705 15.6492 10.9177 15.3229 10.3372 14.7423C9.75669 14.1617 9.43062 13.3743 9.43068 12.5532ZM7.75691 12.5532C7.75691 13.4965 8.03661 14.4185 8.56065 15.2028C9.08469 15.9871 9.82952 16.5984 10.701 16.9593C11.5724 17.3203 12.5313 17.4147 13.4564 17.2307C14.3816 17.0467 15.2313 16.5925 15.8983 15.9255C16.5653 15.2585 17.0195 14.4088 17.2035 13.4837C17.3875 12.5585 17.2931 11.5996 16.9321 10.7282C16.5712 9.85674 15.9599 9.1119 15.1756 8.58787C14.3913 8.06383 13.4693 7.78412 12.526 7.78412C11.8997 7.78409 11.2796 7.90743 10.7009 8.14709C10.1223 8.38675 9.59654 8.73803 9.15368 9.18089C8.71082 9.62375 8.35953 10.1495 8.11987 10.7281C7.88021 11.3068 7.75688 11.9269 7.75691 12.5532ZM16.3694 7.59515C16.3693 7.81557 16.4346 8.03107 16.557 8.2144C16.6793 8.39772 16.8533 8.54064 17.0569 8.62508C17.2605 8.70953 17.4846 8.7317 17.7008 8.68879C17.917 8.64588 18.1156 8.53982 18.2716 8.38403C18.4275 8.22824 18.5337 8.02971 18.5768 7.81355C18.6199 7.59738 18.5979 7.37329 18.5137 7.16961C18.4294 6.96593 18.2867 6.79182 18.1034 6.66928C17.9202 6.54674 17.7048 6.48128 17.4844 6.48119C17.1889 6.48132 16.9056 6.59871 16.6966 6.80758C16.4877 7.01644 16.3702 7.29971 16.3699 7.59515M8.77431 20.1133C8.18537 20.1068 7.60193 19.999 7.04955 19.7947C6.64896 19.6403 6.28513 19.4037 5.98149 19.1002C5.67786 18.7967 5.44113 18.4329 5.28656 18.0324C5.08209 17.4801 4.97431 16.8966 4.96794 16.3077C4.92284 15.3287 4.91402 15.0346 4.91402 12.5545C4.91402 10.0743 4.92382 9.78094 4.96794 8.80104C4.97508 8.21216 5.08284 7.62884 5.28656 7.07628C5.44096 6.67556 5.67761 6.31165 5.98126 6.00799C6.28492 5.70434 6.64883 5.46769 7.04955 5.31329C7.60191 5.10883 8.18536 5.00105 8.77431 4.99467C9.75323 4.94957 10.0473 4.94075 12.5265 4.94075C15.0057 4.94075 15.3 4.95031 16.2799 4.99491C16.8688 5.00206 17.4521 5.10982 18.0047 5.31354C18.4054 5.46795 18.7693 5.7046 19.073 6.00825C19.3766 6.31191 19.6133 6.67582 19.7677 7.07653C19.9721 7.62889 20.0799 8.21234 20.0863 8.80129C20.1314 9.78168 20.1402 10.0743 20.1402 12.5547C20.1402 15.0351 20.1312 15.3282 20.0863 16.3081C20.0795 16.897 19.9717 17.4804 19.7677 18.0329C19.6131 18.4334 19.3764 18.7972 19.0728 19.1007C18.7691 19.4042 18.4053 19.6407 18.0047 19.7952C17.4523 19.9996 16.8689 20.1074 16.2799 20.1138C15.301 20.1589 15.0069 20.1677 12.5265 20.1677C10.0461 20.1677 9.75299 20.1586 8.77431 20.1138M8.69735 3.32236C7.92672 3.33752 7.16425 3.48337 6.44244 3.75373C5.82541 3.9923 5.26504 4.35718 4.79726 4.82497C4.32947 5.29275 3.96459 5.85312 3.72602 6.47015C3.4557 7.19197 3.30984 7.95443 3.29465 8.72506C3.24882 9.71526 3.23853 10.0319 3.23853 12.5542C3.23853 15.0765 3.24907 15.393 3.29465 16.3834C3.30984 17.154 3.4557 17.9165 3.72602 18.6383C3.96461 19.2553 4.32949 19.8157 4.79727 20.2835C5.26505 20.7512 5.82542 21.1161 6.44244 21.3547C7.16429 21.6249 7.92673 21.7708 8.69735 21.7861C9.68804 21.8312 10.0042 21.8422 12.5265 21.8422C15.0488 21.8422 15.3652 21.8317 16.3557 21.7861C17.1263 21.7709 17.8888 21.625 18.6106 21.3547C19.2276 21.1161 19.788 20.7512 20.2558 20.2835C20.7235 19.8157 21.0884 19.2553 21.327 18.6383C21.5977 17.9166 21.7436 17.1541 21.7584 16.3834C21.8035 15.3925 21.8138 15.0765 21.8138 12.5542C21.8138 10.0319 21.8032 9.7155 21.7584 8.72506C21.7432 7.95443 21.5974 7.19196 21.327 6.47015C21.0884 5.85324 20.7236 5.29295 20.256 4.82518C19.7884 4.35741 19.2282 3.99247 18.6113 3.75373C17.8896 3.4832 17.1271 3.33734 16.3564 3.32236C15.366 3.27702 15.0496 3.26624 12.5277 3.26624C10.0059 3.26624 9.68877 3.27678 8.69784 3.32236" fill="white"/>
</g>
<defs>
<radialGradient id="paint0_radial_615_27" cx="0" cy="0" r="1" gradientUnits="userSpaceOnUse" gradientTransform="translate(1.61789 24.4525) scale(31.7407)">
<stop offset="0.09" stop-color="#FA8F21"/>
<stop offset="0.78" stop-color="#D82D7E"/>
</radialGradient>
<radialGradient id="paint1_radial_615_27" cx="0" cy="0" r="1" gradientUnits="userSpaceOnUse" gradientTransform="translate(15.1519 23.8181) scale(24.4404)">
<stop offset="0.64" stop-color="#8C3AAA" stop-opacity="0"/>
<stop offset="1" stop-color="#8C3AAA"/>
</radialGradient>
<clipPath id="clip0_615_27">
<rect width="25" height="25" fill="white"/>
</clipPath>
</defs>
</svg>
