<svg width="25" height="25" viewBox="0 0 25 25" fill="none" xmlns="http://www.w3.org/2000/svg">
<path d="M22.6562 0.586028H2.34375C1.88287 0.581337 1.43896 0.759669 1.10941 1.08189C0.779865 1.40412 0.591604 1.84391 0.585938 2.30478V22.6993C0.592628 23.1595 0.78134 23.5983 1.11078 23.9197C1.44021 24.2411 1.88354 24.4188 2.34375 24.4142H22.6562C23.1172 24.4178 23.5608 24.2389 23.8901 23.9164C24.2195 23.594 24.4079 23.1543 24.4141 22.6934V2.29892C24.4058 1.8394 24.2166 1.40171 23.8874 1.08096C23.5583 0.760216 23.1158 0.582352 22.6562 0.586028Z" fill="#0076B2"/>
<path d="M4.11328 9.51758H7.65039V20.8984H4.11328V9.51758ZM5.88281 3.85352C6.2885 3.85352 6.68508 3.97384 7.02237 4.19927C7.35966 4.4247 7.62251 4.7451 7.77767 5.11995C7.93284 5.49479 7.97333 5.90724 7.89405 6.3051C7.81476 6.70297 7.61924 7.06838 7.33224 7.35511C7.04524 7.64184 6.67964 7.837 6.2817 7.91591C5.88376 7.99482 5.47136 7.95393 5.09666 7.79841C4.72196 7.64289 4.40181 7.37973 4.1767 7.04223C3.95159 6.70472 3.83165 6.30803 3.83203 5.90234C3.83255 5.35878 4.04884 4.83766 4.43338 4.45348C4.81792 4.06931 5.33925 3.85352 5.88281 3.85352ZM9.86914 9.51758H13.2598V11.0801H13.3066C13.7793 10.1855 14.9316 9.24219 16.6523 9.24219C20.2344 9.23437 20.8984 11.5918 20.8984 14.6484V20.8984H17.3613V15.3613C17.3613 14.043 17.3379 12.3457 15.5234 12.3457C13.709 12.3457 13.4004 13.7832 13.4004 15.2754V20.8984H9.86914V9.51758Z" fill="white"/>
</svg>
